<svg width="390" height="232" viewBox="0 0 390 232" fill="none" xmlns="http://www.w3.org/2000/svg">
<path fill-rule="evenodd" clip-rule="evenodd" d="M157.681 363.32L153.943 362.966L150.205 362.563L146.469 362.113L142.736 361.615L139.006 361.068L135.28 360.474L131.56 359.832L127.847 359.143L124.142 358.406L120.445 357.622L116.758 356.79L113.082 355.912L109.418 354.988L105.767 354.017L102.129 353.001L98.5069 351.938L94.9002 350.831L91.3103 349.678L87.7382 348.481L84.1848 347.24L80.651 345.955L77.138 344.626L73.6464 343.254L70.1773 341.84L66.7317 340.383L63.3103 338.885L59.9143 337.344L56.5443 335.763L53.2014 334.142L49.8864 332.48L46.6003 330.778L43.3438 329.037L40.1179 327.257L36.9235 325.439L33.7614 323.583L30.6325 321.69L27.5375 319.76L24.4775 317.793L21.4531 315.791L18.4652 313.753L15.5146 311.681L12.6021 309.574L9.72847 307.434L6.8944 305.261L4.10073 303.056L1.34814 300.818L-1.36274 298.55L-4.03118 296.252L-6.65656 293.923L-9.23832 291.566L-11.7758 289.18L-14.2683 286.767L-16.7154 284.327L-19.1163 281.86L-21.4706 279.368L-23.7777 276.851L-26.037 274.31L-28.2479 271.746L-30.41 269.159L-32.5226 266.549L-34.5852 263.919L-36.5975 261.268L-38.5588 258.597L-40.4686 255.907L-42.3266 253.198L-44.1322 250.472L-45.8851 247.729L-47.5847 244.971L-49.2307 242.196L-50.8226 239.408L-52.3602 236.605L-53.843 233.789L-55.2706 230.962L-56.6428 228.122L-57.9593 225.273L-59.2197 222.413L-60.4238 219.544L-61.5712 216.667L-62.6617 213.783L-63.6949 210.892L-64.6706 207.995L-65.5882 205.094L-66.4475 202.188L-67.248 199.278L-67.9895 196.366L-68.6714 193.452L-69.2934 190.537L-69.8551 187.621L-70.3561 184.706L-70.7959 181.793L-71.1743 178.882L-71.4908 175.974L-71.7451 173.071L-71.9368 170.172L-72.0656 167.279L-72.1311 164.393L-72.1333 161.515L-72.0716 158.646L-71.946 155.786L-71.7563 152.937L-71.5022 150.1L-71.1838 147.276L-70.801 144.465L-70.3537 141.669L-69.842 138.889L-69.2659 136.125L-68.6257 133.38L-67.9214 130.654L-67.1534 127.947L-66.3221 125.262L-65.4277 122.599L-64.4708 119.958L-63.4517 117.342L-62.3712 114.751L-61.2299 112.187L-60.0285 109.649L-58.7678 107.139L-57.4486 104.658L-56.0719 102.208L-54.6388 99.7875L-53.1503 97.399L-51.6075 95.043L-50.0117 92.7201L-48.3643 90.431L-46.6665 88.1766L-44.9197 85.9574L-43.1256 83.774L-41.2857 81.6269L-39.4017 79.5166L-37.4752 77.4435L-35.5079 75.4079L-33.5018 73.4102L-31.4585 71.4507L-29.3799 69.5294L-27.2678 67.6465L-25.124 65.8022L-22.9503 63.9964L-20.7486 62.2291L-18.5206 60.5002L-16.2682 58.8097L-13.9932 57.1572L-11.6972 55.5427L-9.38201 53.9658L-7.04943 52.4261L-4.70103 50.9235L-2.33854 49.4573L0.0364918 48.0272L2.42241 46.6327L4.81774 45.2733L7.22097 43.9484L9.63072 42.6574L12.0455 41.3998L14.464 40.1748L16.8849 38.9818L19.307 37.8202L21.7291 36.6891L24.1501 35.5879L26.569 34.5159L28.9846 33.4722L31.3961 32.4561L33.8025 31.4669L36.203 30.5037L38.5968 29.5658L40.9832 28.6524L43.3615 27.7626L45.7311 26.8956L48.0914 26.0507L50.4418 25.2271L52.782 24.424L55.1115 23.6406L57.43 22.8761L59.7372 22.1298L62.033 21.401L64.3171 20.689L66.5893 19.9931L68.8498 19.3126L71.0984 18.6469L73.3351 17.9954L75.5601 17.3575L77.7735 16.7326L79.9754 16.1204L82.1662 15.5202L84.3459 14.9317L86.515 14.3544L88.6737 13.788L90.8224 13.2322L92.9615 12.6867L95.0914 12.1513L97.2125 11.6256L99.3254 11.1097L101.43 10.6034L103.528 10.1065L105.619 9.61918L107.703 9.14129L109.782 8.67291L111.856 8.21413L113.924 7.76507L115.988 7.32589L118.049 6.89677L120.106 6.47795L122.161 6.06966L124.213 5.6722L126.263 5.28586L128.311 4.91097L130.359 4.5479L132.406 4.19701L134.452 3.85868L136.499 3.53331L138.546 3.22132L140.593 2.9231L142.641 2.63909L144.69 2.3697L146.74 2.11534L148.792 1.87645L150.844 1.65345L152.899 1.44681L154.955 1.25696L157.012 1.08436L159.071 0.929467L161.131 0.792734L163.193 0.674617L165.257 0.575555L167.321 0.495988L169.387 0.436342L171.454 0.397035L173.521 0.37847L175.588 0.381024L177.656 0.405064L179.724 0.450934L181.791 0.518957L183.858 0.609432L185.923 0.722627L187.987 0.858784L190.048 1.01812L192.108 1.20082L194.164 1.40704L196.217 1.63689L198.267 1.89047L200.312 2.16782L202.352 2.46896L204.387 2.79387L206.417 3.14247L208.44 3.51461L210.457 3.91006L212.467 4.32855L214.469 4.76975L216.464 5.23327L218.45 5.71865L220.428 6.22542L222.396 6.75302L224.356 7.30087L226.306 7.86835L228.247 8.45481L230.178 9.05957L232.099 9.68191L234.011 10.3211L235.912 10.9764L237.804 11.647L239.687 12.3323L241.559 13.0313L243.423 13.7434L245.277 14.4677L247.123 15.2036L248.961 15.9503L250.79 16.707L252.612 17.4732L254.427 18.248L256.236 19.0309L258.038 19.8214L259.835 20.6187L261.628 21.4225L263.416 22.2321L265.201 23.0473L266.983 23.8676L268.763 24.6926L270.541 25.5222L272.318 26.3561L274.096 27.1941L275.874 28.0362L277.653 28.8822L279.434 29.7322L281.217 30.5864L283.004 31.4447L284.794 32.3074L286.588 33.1747L288.387 34.0471L290.19 34.9247L291.999 35.808L293.814 36.6976L295.634 37.5939L297.46 38.4974L299.293 39.4089L301.131 40.3289L302.976 41.2581L304.826 42.1973L306.683 43.1472L308.544 44.1085L310.411 45.082L312.282 46.0685L314.158 47.0687L316.037 48.0834L317.919 49.1134L319.803 50.1593L321.69 51.2219L323.577 52.302L325.464 53.4001L327.35 54.5171L329.235 55.6535L331.117 56.8099L332.995 57.987L334.869 59.1853L336.737 60.4053L338.597 61.6475L340.45 62.9124L342.293 64.2003L344.125 65.5117L345.946 66.8468L347.754 68.2059L349.547 69.5892L351.325 70.997L353.086 72.4294L354.83 73.8864L356.553 75.3681L358.257 76.8746L359.938 78.4056L361.597 79.9612L363.233 81.5412L364.843 83.1452L366.428 84.7732L367.986 86.4247L369.517 88.0995L371.02 89.7972L372.494 91.5174L373.939 93.2597L375.354 95.0236L376.738 96.8088L378.092 98.6147L379.415 100.441L380.706 102.287L381.966 104.152L383.194 106.036L384.39 107.939L385.553 109.859L386.685 111.797L387.784 113.751L388.852 115.722L389.887 117.709L390.891 119.712L391.863 121.729L392.803 123.762L393.711 125.809L394.589 127.869L395.435 129.944L396.25 132.031L397.035 134.132L397.79 136.246L398.514 138.371L399.208 140.509L399.872 142.659L400.507 144.821L401.111 146.994L401.687 149.179L402.233 151.374L402.75 153.58L403.238 155.798L403.696 158.025L404.126 160.263L404.525 162.512L404.896 164.77L405.237 167.039L405.548 169.317L405.829 171.605L406.08 173.902L406.3 176.208L406.489 178.523L406.647 180.847L406.773 183.18L406.866 185.521L406.927 187.869L406.954 190.226L406.947 192.589L406.906 194.96L406.829 197.337L406.717 199.72L406.569 202.109L406.383 204.503L406.16 206.902L405.899 209.305L405.6 211.712L405.26 214.123L404.881 216.536L404.461 218.952L404 221.369L403.497 223.786L402.951 226.204L402.362 228.622L401.73 231.039L401.053 233.453L400.332 235.865L399.565 238.274L398.753 240.679L397.894 243.079L396.989 245.473L396.036 247.86L395.036 250.24L393.988 252.612L392.892 254.975L391.748 257.328L390.555 259.67L389.314 262.001L388.024 264.319L386.685 266.625L385.298 268.917L383.862 271.195L382.378 273.457L380.846 275.704L379.266 277.934L377.638 280.147L375.963 282.342L374.24 284.519L372.471 286.677L370.655 288.815L265.713 247.465L366.885 293.031L364.932 295.108L362.934 297.163L360.891 299.195L358.805 301.205L356.675 303.192L354.502 305.155L352.286 307.094L350.028 309.008L347.728 310.897L345.387 312.761L343.005 314.599L340.583 316.411L338.122 318.196L335.621 319.953L333.081 321.683L330.503 323.386L327.887 325.059L325.234 326.704L322.544 328.32L319.818 329.906L317.056 331.462L314.259 332.987L311.427 334.482L308.561 335.945L305.661 337.377L302.727 338.776L299.761 340.143L296.763 341.477L293.734 342.778L265.713 247.465L287.582 345.277L284.46 346.476L281.31 347.639L278.131 348.767L274.923 349.86L271.688 350.916L268.426 351.937L265.137 352.92L261.823 353.867L258.484 354.776L255.12 355.647L251.732 356.479L248.321 357.273L244.887 358.028L241.432 358.744L237.955 359.419L234.457 360.054L230.94 360.648L227.404 361.201L223.849 361.712L220.277 362.181L216.687 362.607L213.082 362.991L209.462 363.331L205.827 363.627L202.179 363.88L198.518 364.087L194.845 364.249L191.161 364.366L187.468 364.438L183.765 364.463L180.055 364.441L176.337 364.373L172.614 364.258L168.885 364.095L165.153 363.884L161.418 363.626L157.681 363.32Z" fill="url(#paint0_linear_147_2053)" fill-opacity="0.5"/>
<defs>
<linearGradient id="paint0_linear_147_2053" x1="195.412" y1="1.36969" x2="138.455" y2="360.981" gradientUnits="userSpaceOnUse">
<stop stop-color="#A1C4FD"/>
<stop offset="1" stop-color="#C2E9FB"/>
</linearGradient>
</defs>
</svg>
